# xmcd
#
# Track frame offsets: 
#        150
#        15990
#        31470
#        45412
#        59802
#        76450
#        91975
#        106140
#        119705
#        131442
#        147687
#        162660
#        174360
#        187682
#
# Disc length: 2674 seconds
#
# Revision: 1
# Processed by: cddbd v1.5.2PL0 Copyright (c) Steve Scherf et al.
# Submitted via: ExactAudioCopy v1.0b4
#
DISCID=bb0a700e
DTITLE=Mastruz Com Leite - Canta Sucessos Do Rei
DYEAR=2013
DGENRE=Country
TTITLE0=Eu Daria Minha Vida
TTITLE1=O Tempo Vai Apagar
TTITLE2=Ninguem Vai Tirar Você de Mim
TTITLE3=Ciúme de Você
TTITLE4=Esqueça
TTITLE5=Só Vou Gostar de Quem Gosta de Mim
TTITLE6=Eu Amo Demais
TTITLE7=É Tempo de Amar
TTITLE8=É Papo Firme
TTITLE9=Como Vai Você
TTITLE10=O Gênio
TTITLE11=Nossa Canção
TTITLE12=Aquele Beijo Que Te Dei
TTITLE13=Não Há Dinheiro Que Pague
EXTD=Dayvison DJ - Recife - PE\n8690-4073\ndayvisondj@hotmail.com
EXTT0=
EXTT1=
EXTT2=
EXTT3=
EXTT4=
EXTT5=
EXTT6=
EXTT7=
EXTT8=
EXTT9=
EXTT10=
EXTT11=
EXTT12=
EXTT13=
PLAYORDER=
